# Blender v2.90.1 OBJ File: 'piano.blend'
# www.blender.org
mtllib TB2.mtl
o grupo2_Cubo.011
v 0.059873 -0.119746 -0.000159
v 0.059873 0.000000 -0.000159
v -0.059873 -0.119746 0.000159
v -0.059873 0.000000 0.000159
v 0.058295 -0.119746 -0.595183
v 0.058295 0.000000 -0.595183
v -0.061451 -0.119746 -0.594866
v -0.061451 0.000000 -0.594866
v -1.686385 -0.121666 0.004472
v -1.686385 -0.001920 0.004472
v -1.806130 -0.121666 0.004790
v -1.806130 -0.001920 0.004790
v -1.687963 -0.121666 -0.590552
v -1.687963 -0.001920 -0.590552
v -1.807708 -0.121666 -0.590234
v -1.807708 -0.001920 -0.590234
v -1.823051 -0.119746 0.004835
v -1.823051 0.000000 0.004835
v -1.942797 -0.119746 0.005152
v -1.942797 0.000000 0.005152
v -1.824630 -0.119746 -0.590189
v -1.824630 0.000000 -0.590189
v -1.944375 -0.119746 -0.589872
v -1.944375 0.000000 -0.589872
v -2.914298 -0.119746 0.007729
v -2.914298 0.000000 0.007729
v -3.034043 -0.119746 0.008047
v -3.034043 0.000000 0.008047
v -2.915876 -0.119746 -0.587295
v -2.915876 0.000000 -0.587295
v -3.035621 -0.119746 -0.586978
v -3.035621 0.000000 -0.586978
v -4.005545 -0.119746 0.010623
v -4.005545 0.000000 0.010623
v -4.125290 -0.119746 0.010941
v -4.125290 0.000000 0.010941
v -4.007123 -0.119746 -0.584401
v -4.007123 0.000000 -0.584401
v -4.126868 -0.119746 -0.584084
v -4.126868 0.000000 -0.584084
vt 0.375000 0.000000
vt 0.625000 0.000000
vt 0.625000 0.250000
vt 0.375000 0.250000
vt 0.625000 0.500000
vt 0.375000 0.500000
vt 0.625000 0.750000
vt 0.375000 0.750000
vt 0.625000 1.000000
vt 0.375000 1.000000
vt 0.125000 0.500000
vt 0.125000 0.750000
vt 0.875000 0.500000
vt 0.875000 0.750000
vt 0.375000 0.000000
vt 0.625000 0.000000
vt 0.625000 0.250000
vt 0.375000 0.250000
vt 0.625000 0.500000
vt 0.375000 0.500000
vt 0.625000 0.750000
vt 0.375000 0.750000
vt 0.625000 1.000000
vt 0.375000 1.000000
vt 0.125000 0.500000
vt 0.125000 0.750000
vt 0.875000 0.500000
vt 0.875000 0.750000
vt 0.375000 0.000000
vt 0.625000 0.000000
vt 0.625000 0.250000
vt 0.375000 0.250000
vt 0.625000 0.500000
vt 0.375000 0.500000
vt 0.625000 0.750000
vt 0.375000 0.750000
vt 0.625000 1.000000
vt 0.375000 1.000000
vt 0.125000 0.500000
vt 0.125000 0.750000
vt 0.875000 0.500000
vt 0.875000 0.750000
vt 0.375000 0.000000
vt 0.625000 0.000000
vt 0.625000 0.250000
vt 0.375000 0.250000
vt 0.625000 0.500000
vt 0.375000 0.500000
vt 0.625000 0.750000
vt 0.375000 0.750000
vt 0.625000 1.000000
vt 0.375000 1.000000
vt 0.125000 0.500000
vt 0.125000 0.750000
vt 0.875000 0.500000
vt 0.875000 0.750000
vt 0.375000 0.000000
vt 0.625000 0.000000
vt 0.625000 0.250000
vt 0.375000 0.250000
vt 0.625000 0.500000
vt 0.375000 0.500000
vt 0.625000 0.750000
vt 0.375000 0.750000
vt 0.625000 1.000000
vt 0.375000 1.000000
vt 0.125000 0.500000
vt 0.125000 0.750000
vt 0.875000 0.500000
vt 0.875000 0.750000
vn 0.0027 0.0000 1.0000
vn -1.0000 0.0000 0.0027
vn -0.0027 0.0000 -1.0000
vn 1.0000 0.0000 -0.0027
vn 0.0000 -1.0000 -0.0000
vn 0.0000 1.0000 -0.0000
usemtl Material.036
s off
f 1/1/1 2/2/1 4/3/1 3/4/1
f 3/4/2 4/3/2 8/5/2 7/6/2
f 7/6/3 8/5/3 6/7/3 5/8/3
f 5/8/4 6/7/4 2/9/4 1/10/4
f 3/11/5 7/6/5 5/8/5 1/12/5
f 8/5/6 4/13/6 2/14/6 6/7/6
usemtl Material.024
f 9/15/1 10/16/1 12/17/1 11/18/1
f 11/18/2 12/17/2 16/19/2 15/20/2
f 15/20/3 16/19/3 14/21/3 13/22/3
f 13/22/4 14/21/4 10/23/4 9/24/4
f 11/25/5 15/20/5 13/22/5 9/26/5
f 16/19/6 12/27/6 10/28/6 14/21/6
usemtl Material.025
f 17/29/1 18/30/1 20/31/1 19/32/1
f 19/32/2 20/31/2 24/33/2 23/34/2
f 23/34/3 24/33/3 22/35/3 21/36/3
f 21/36/4 22/35/4 18/37/4 17/38/4
f 19/39/5 23/34/5 21/36/5 17/40/5
f 24/33/6 20/41/6 18/42/6 22/35/6
usemtl Material.033
f 25/43/1 26/44/1 28/45/1 27/46/1
f 27/46/2 28/45/2 32/47/2 31/48/2
f 31/48/3 32/47/3 30/49/3 29/50/3
f 29/50/4 30/49/4 26/51/4 25/52/4
f 27/53/5 31/48/5 29/50/5 25/54/5
f 32/47/6 28/55/6 26/56/6 30/49/6
usemtl Material.041
f 33/57/1 34/58/1 36/59/1 35/60/1
f 35/60/2 36/59/2 40/61/2 39/62/2
f 39/62/3 40/61/3 38/63/3 37/64/3
f 37/64/4 38/63/4 34/65/4 33/66/4
f 35/67/5 39/62/5 37/64/5 33/68/5
f 40/61/6 36/69/6 34/70/6 38/63/6
