# Blender v2.90.1 OBJ File: 'Barril.blend'
# www.blender.org
mtllib Brazo.mtl
o brazo_Cube
v 0.347104 3.029623 0.562634
v 0.309704 3.004998 0.571011
v 0.313893 3.029623 0.496210
v 0.351293 3.004998 0.487833
v 0.380888 1.863818 0.428643
v 0.280109 1.863818 0.428643
v 0.280109 1.863818 0.630201
v 0.380888 1.863818 0.630201
v 0.377966 1.184671 0.624356
v 0.283031 1.184671 0.624356
v 0.283031 1.184671 0.434487
v 0.377966 1.184671 0.434487
v 0.299780 2.669346 0.467984
v 0.361217 2.669346 0.467984
v 0.361217 2.669346 0.590859
v 0.299780 2.669346 0.590859
v 0.304702 3.025405 0.536901
v 0.326759 3.025405 0.581015
v 0.356295 3.025405 0.521943
v 0.334238 3.025405 0.477829
v 0.330499 1.863818 0.390850
v 0.399784 1.863818 0.529422
v 0.330499 1.863818 0.667993
v 0.261213 1.863818 0.529422
v 0.278970 1.501707 0.632479
v 0.265231 1.184671 0.529422
v 0.278970 1.501707 0.426364
v 0.382027 1.501707 0.632479
v 0.330499 1.184671 0.659956
v 0.382027 1.501707 0.426364
v 0.395766 1.184671 0.529422
v 0.330499 1.184671 0.398887
v 0.305735 2.910713 0.479894
v 0.289273 2.286804 0.446970
v 0.355568 2.907521 0.479282
v 0.371724 2.286804 0.446970
v 0.355262 2.910713 0.578949
v 0.371724 2.286804 0.611873
v 0.305429 2.907521 0.579562
v 0.289273 2.286804 0.611873
v 0.330499 2.669346 0.444945
v 0.372737 2.669346 0.529422
v 0.330499 2.669346 0.613898
v 0.288260 2.669346 0.529422
v 0.330499 3.066561 0.529422
v 0.259647 1.501707 0.529422
v 0.330499 1.501707 0.671126
v 0.401351 1.501707 0.529422
v 0.330499 1.501707 0.387718
v 0.330875 2.909915 0.460568
v 0.330499 2.286803 0.416051
v 0.364925 2.909915 0.528669
v 0.387184 2.286803 0.529422
v 0.330122 2.909915 0.598275
v 0.330499 2.286803 0.642792
v 0.296072 2.909915 0.530175
v 0.273813 2.286803 0.529422
v 0.319261 3.060747 0.551897
v 0.341736 3.060746 0.506947
vt 0.231298 0.500963
vt 0.231080 0.500000
vt 0.230704 0.499544
vt 0.230739 0.500758
vt 0.230375 0.500797
vt 0.230425 0.499459
vt 0.230862 0.499037
vt 0.231736 0.500541
vt 0.231457 0.500456
vt 0.231421 0.499241
vt 0.231785 0.499202
vt 0.196800 0.566020
vt 0.145647 0.428592
vt 0.156452 0.532054
vt 0.246878 0.528730
vt 0.207964 0.618032
vt 0.288339 0.475770
vt 0.019320 0.530329
vt 0.077072 0.833288
vt 0.077073 0.210826
vt 0.273923 0.630240
vt 0.294013 0.437953
vt 0.316513 0.571408
vt 0.265360 0.433980
vt 0.231080 0.927942
vt 0.385087 0.789174
vt 0.305707 0.467946
vt 0.215282 0.471269
vt 0.254196 0.381968
vt 0.173821 0.524230
vt 0.442840 0.469671
vt 0.385087 0.166712
vt 0.188237 0.369760
vt 0.168147 0.562047
vt 0.231080 0.072058
vt 0.227894 0.500086
vt 0.228214 0.500355
vt 0.212857 0.527249
vt 0.224604 0.524100
vt 0.229304 0.499677
vt 0.211049 0.515534
vt 0.184267 0.583319
vt 0.219042 0.573470
vt 0.175026 0.547721
vt 0.231834 0.499597
vt 0.221761 0.494111
vt 0.233946 0.499644
vt 0.237556 0.475899
vt 0.200819 0.482297
vt 0.243118 0.426529
vt 0.234266 0.499914
vt 0.249304 0.472751
vt 0.232856 0.500322
vt 0.251111 0.484465
vt 0.277893 0.416681
vt 0.287134 0.452279
vt 0.230326 0.500403
vt 0.240399 0.505889
vt 0.261341 0.517703
vn 0.5139 0.6521 0.5574
vn -0.8551 0.2932 0.4276
vn -0.8466 0.4952 -0.1951
vn 0.8466 0.4952 0.1951
vn -0.5139 0.6521 -0.5574
vn 0.8551 0.2932 -0.4276
vn -0.8477 0.0236 -0.5300
vn -0.8480 -0.0092 -0.5298
vn -1.0000 -0.0066 0.0000
vn -0.9998 0.0170 0.0000
vn -0.8480 -0.0092 0.5298
vn -0.8477 0.0236 0.5300
vn -0.9998 -0.0176 0.0000
vn -0.8508 -0.0243 0.5249
vn -0.8508 -0.0243 -0.5249
vn 0.0000 -0.0132 0.9999
vn 0.0000 0.0337 0.9994
vn 0.8480 -0.0092 0.5298
vn 0.8477 0.0236 0.5300
vn 0.0000 -0.0352 0.9994
vn 0.8508 -0.0243 0.5249
vn 1.0000 -0.0066 0.0000
vn 0.9998 0.0170 0.0000
vn 0.8480 -0.0092 -0.5298
vn 0.8477 0.0236 -0.5300
vn 0.9998 -0.0176 0.0000
vn 0.8508 -0.0243 -0.5249
vn 0.0000 -0.0132 -0.9999
vn 0.0000 0.0337 -0.9994
vn 0.0000 -0.0352 -0.9994
vn -0.7870 0.3839 -0.4830
vn 0.0925 0.4182 -0.9036
vn -0.0123 0.1072 -0.9941
vn -0.8470 0.0848 -0.5247
vn -0.0005 0.0706 -0.9975
vn -0.8489 0.0493 -0.5263
vn 0.8468 0.0641 -0.5279
vn 0.8489 0.0484 -0.5263
vn 0.8480 0.1433 -0.5102
vn 0.0000 0.0672 -0.9977
vn -0.8480 0.0467 -0.5280
vn 0.8480 0.0467 -0.5280
vn 0.9618 0.2705 -0.0424
vn 0.9984 0.0549 0.0064
vn 0.9994 0.0353 0.0002
vn 0.8470 0.0848 0.5247
vn 0.8489 0.0493 0.5263
vn 0.7870 0.3839 0.4830
vn 0.9994 0.0337 0.0000
vn 0.8480 0.0467 0.5280
vn -0.0925 0.4182 0.9036
vn 0.0123 0.1072 0.9941
vn 0.0005 0.0706 0.9975
vn -0.8468 0.0641 0.5279
vn -0.8489 0.0484 0.5263
vn -0.8480 0.1433 0.5102
vn 0.0000 0.0672 0.9977
vn -0.8480 0.0467 0.5280
vn -0.9618 0.2705 0.0424
vn -0.9984 0.0549 -0.0064
vn -0.9994 0.0353 -0.0002
vn -0.9994 0.0337 0.0000
usemtl Material.005
s off
f 1/1/1 45/2/1 58/3/1 18/4/1
f 2/5/2 18/4/2 58/3/2 17/6/2
f 3/7/3 17/6/3 58/3/3 45/2/3
f 1/1/4 19/8/4 59/9/4 45/2/4
f 3/7/5 45/2/5 59/9/5 20/10/5
f 4/11/6 20/10/6 59/9/6 19/8/6
s 1
f 6/12/7 27/13/8 46/14/9 24/15/10
f 24/15/10 46/14/9 25/16/11 7/17/12
f 46/14/9 26/18/13 10/19/14 25/16/11
f 27/13/8 11/20/15 26/18/13 46/14/9
f 7/17/12 25/16/11 47/21/16 23/22/17
f 23/22/17 47/21/16 28/23/18 8/24/19
f 47/21/16 29/25/20 9/26/21 28/23/18
f 25/16/11 10/19/14 29/25/20 47/21/16
f 8/24/19 28/23/18 48/27/22 22/28/23
f 22/28/23 48/27/22 30/29/24 5/30/25
f 48/27/22 31/31/26 12/32/27 30/29/24
f 28/23/18 9/26/21 31/31/26 48/27/22
f 5/30/25 30/29/24 49/33/28 21/34/29
f 21/34/29 49/33/28 27/13/8 6/12/7
f 49/33/28 32/35/30 11/20/15 27/13/8
f 30/29/24 12/32/27 32/35/30 49/33/28
f 3/7/31 20/10/32 50/36/33 33/37/34
f 33/37/34 50/36/33 41/38/35 13/39/36
f 50/36/33 35/40/37 14/41/38 41/38/35
f 20/10/32 4/11/39 35/40/37 50/36/33
f 13/39/36 41/38/35 51/42/40 34/43/41
f 34/43/41 51/42/40 21/34/29 6/12/7
f 51/42/40 36/44/42 5/30/25 21/34/29
f 41/38/35 14/41/38 36/44/42 51/42/40
f 4/11/39 19/8/43 52/45/44 35/40/37
f 35/40/37 52/45/44 42/46/45 14/41/38
f 52/45/44 37/47/46 15/48/47 42/46/45
f 19/8/43 1/1/48 37/47/46 52/45/44
f 14/41/38 42/46/45 53/49/49 36/44/42
f 36/44/42 53/49/49 22/28/23 5/30/25
f 53/49/49 38/50/50 8/24/19 22/28/23
f 42/46/45 15/48/47 38/50/50 53/49/49
f 1/1/48 18/4/51 54/51/52 37/47/46
f 37/47/46 54/51/52 43/52/53 15/48/47
f 54/51/52 39/53/54 16/54/55 43/52/53
f 18/4/51 2/5/56 39/53/54 54/51/52
f 15/48/47 43/52/53 55/55/57 38/50/50
f 38/50/50 55/55/57 23/22/17 8/24/19
f 55/55/57 40/56/58 7/17/12 23/22/17
f 43/52/53 16/54/55 40/56/58 55/55/57
f 2/5/56 17/6/59 56/57/60 39/53/54
f 39/53/54 56/57/60 44/58/61 16/54/55
f 56/57/60 33/37/34 13/39/36 44/58/61
f 17/6/59 3/7/31 33/37/34 56/57/60
f 16/54/55 44/58/61 57/59/62 40/56/58
f 40/56/58 57/59/62 24/15/10 7/17/12
f 57/59/62 34/43/41 6/12/7 24/15/10
f 44/58/61 13/39/36 34/43/41 57/59/62
